<svg width="49" height="36" viewBox="0 0 49 36" fill="none" xmlns="http://www.w3.org/2000/svg">
<path d="M34.3221 22.6415H32.1529L31.3841 22.0858C34.0749 19.7393 35.695 16.693 35.695 13.3791C35.695 5.98971 27.7048 0 17.8475 0C7.99018 0 0 5.98971 0 13.3791C0 20.7684 7.99018 26.7581 17.8475 26.7581C22.2682 26.7581 26.3319 25.5437 29.4621 23.5266L30.2034 24.1029V25.729L43.9322 36L48.0234 32.9331L34.3221 22.6415ZM17.8475 22.6415C11.0105 22.6415 5.49153 18.5043 5.49153 13.3791C5.49153 8.25386 11.0105 4.11664 17.8475 4.11664C24.6844 4.11664 30.2034 8.25386 30.2034 13.3791C30.2034 18.5043 24.6844 22.6415 17.8475 22.6415Z" fill="white" fill-opacity="0.5"/>
</svg>
