<svg width="22" height="20" viewBox="0 0 22 20" fill="none" xmlns="http://www.w3.org/2000/svg">
<path d="M9.91998 0.867999C10.03 0.679159 10.1877 0.522473 10.3772 0.413573C10.5667 0.304673 10.7814 0.247364 11 0.247364C11.2185 0.247364 11.4333 0.304673 11.6228 0.413573C11.8123 0.522473 11.9699 0.679159 12.08 0.867999L14.875 5.666L20.303 6.842C20.5165 6.8884 20.7141 6.98995 20.8761 7.13653C21.0382 7.28312 21.159 7.46961 21.2264 7.67742C21.2939 7.88524 21.3058 8.10711 21.2608 8.32092C21.2158 8.53473 21.1155 8.73301 20.97 8.896L17.27 13.037L17.83 18.562C17.8521 18.7796 17.8167 18.9991 17.7274 19.1987C17.6381 19.3983 17.498 19.571 17.3211 19.6996C17.1442 19.8281 16.9367 19.908 16.7192 19.9312C16.5018 19.9544 16.2821 19.9202 16.082 19.832L11 17.592L5.91799 19.832C5.7179 19.9202 5.49818 19.9544 5.28074 19.9312C5.0633 19.908 4.85577 19.8281 4.67886 19.6996C4.50195 19.571 4.36185 19.3983 4.27255 19.1987C4.18326 18.9991 4.14789 18.7796 4.16999 18.562L4.72999 13.037L1.02999 8.897C0.884213 8.73403 0.783741 8.53566 0.738599 8.32172C0.693457 8.10777 0.705225 7.88573 0.772729 7.67775C0.840232 7.46978 0.961109 7.28315 1.12329 7.1365C1.28547 6.98984 1.48329 6.8883 1.69699 6.842L7.12499 5.666L9.91998 0.867999Z" fill="#1979BB"/>
</svg>
